{
  "asset": {
    "generator": "Khronos glTF Blender I/O v1.5.17",
    "version": "2.0"
  },
  "scene": 0,
  "scenes": [
    {
      "name": "Scene",
      "nodes": [3]
    }
  ],
  "nodes": [
    {
      "mesh": 0,
      "name": "Mesh_0"
    },
    {
      "children": [0],
      "name": "pantalla_grande_map.obj.cleaner.materialmerger.gles"
    },
    {
      "children": [1],
      "name": "RootNode (model correction matrix)"
    },
    {
      "children": [2],
      "name": "RootNode (gltf orientation matrix)",
      "rotation": [-0.7071068286895752, 0, 0, 0.7071068286895752]
    }
  ],
  "materials": [
    {
      "doubleSided": true,
      "emissiveFactor": [1, 1, 1],
      "emissiveTexture": {
        "index": 0
      },
      "name": "object1_auv",
      "normalTexture": {
        "index": 1
      },
      "occlusionTexture": {
        "index": 2
      },
      "pbrMetallicRoughness": {
        "baseColorTexture": {
          "index": 3
        },
        "metallicRoughnessTexture": {
          "index": 2
        },
        "roughnessFactor": 0.6000000238418579
      }
    }
  ],
  "meshes": [
    {
      "name": "Mesh_0",
      "primitives": [
        {
          "attributes": {
            "POSITION": 0,
            "NORMAL": 1,
            "TEXCOORD_0": 2
          },
          "indices": 3,
          "material": 0
        }
      ]
    }
  ],
  "textures": [
    {
      "sampler": 0,
      "source": 0
    },
    {
      "sampler": 0,
      "source": 1
    },
    {
      "sampler": 0,
      "source": 2
    },
    {
      "sampler": 0,
      "source": 3
    }
  ],
  "images": [
    {
      "bufferView": 4,
      "mimeType": "image/png",
      "name": "object1_auv_emissive"
    },
    {
      "bufferView": 5,
      "mimeType": "image/png",
      "name": "object1_auv_normal"
    },
    {
      "bufferView": 6,
      "mimeType": "image/png",
      "name": "object1_auv_metallicRoughness"
    },
    {
      "bufferView": 7,
      "mimeType": "image/png",
      "name": "object1_auv_baseColor"
    }
  ],
  "accessors": [
    {
      "bufferView": 0,
      "componentType": 5126,
      "count": 241,
      "max": [14.908056259155273, 0.42465901374816895, 10.016314506530762],
      "min": [-14.973295211791992, -0.8915911912918091, -10.037652015686035],
      "type": "VEC3"
    },
    {
      "bufferView": 1,
      "componentType": 5126,
      "count": 241,
      "type": "VEC3"
    },
    {
      "bufferView": 2,
      "componentType": 5126,
      "count": 241,
      "type": "VEC2"
    },
    {
      "bufferView": 3,
      "componentType": 5123,
      "count": 660,
      "type": "SCALAR"
    }
  ],
  "bufferViews": [
    {
      "buffer": 0,
      "byteLength": 2892,
      "byteOffset": 0
    },
    {
      "buffer": 0,
      "byteLength": 2892,
      "byteOffset": 2892
    },
    {
      "buffer": 0,
      "byteLength": 1928,
      "byteOffset": 5784
    },
    {
      "buffer": 0,
      "byteLength": 1320,
      "byteOffset": 7712
    },
    {
      "buffer": 0,
      "byteLength": 246729,
      "byteOffset": 9032
    },
    {
      "buffer": 0,
      "byteLength": 65389,
      "byteOffset": 255764
    },
    {
      "buffer": 0,
      "byteLength": 309965,
      "byteOffset": 321156
    },
    {
      "buffer": 0,
      "byteLength": 982415,
      "byteOffset": 631124
    }
  ],
  "samplers": [
    {
      "magFilter": 9729,
      "minFilter": 9987
    }
  ],
  "buffers": [
    {
      "byteLength": 1613540,
      "uri": "data:application/octet-stream;base64,"
    }
  ]
}
